<!-- Generator: Adobe Illustrator 21.1.0, SVG Export Plug-In  -->
<svg version="1.1"
	 xmlns="http://www.w3.org/2000/svg" xmlns:xlink="http://www.w3.org/1999/xlink" xmlns:a="http://ns.adobe.com/AdobeSVGViewerExtensions/3.0/"
	 x="0px" y="0px" width="201.102px" height="33.747px" viewBox="0 0 201.102 33.747"
	 style="enable-background:new 0 0 201.102 33.747;" xml:space="preserve">
<style type="text/css">
	.st0{fill:#FFC627;}
	.st1{fill:#4D4D4F;}
</style>
<defs>
</defs>
<g>
	<g>
		<polygon class="st0" points="12.989,26.446 7.3,26.446 7.3,7.3 26.448,7.3 26.448,13.238 33.748,13.238 33.748,0 0,0 0,33.747 
			12.989,33.747 		"/>
		<polygon class="st1" points="26.448,20.508 26.448,26.446 20.26,26.446 20.26,33.747 33.748,33.747 33.748,20.508 		"/>
	</g>
	<path class="st1" d="M63.993,27.734V6.013h16.508v4.903H69.579v2.947h8.688v4.716h-8.688v4.251h11.169v4.903H63.993z
		 M89.223,27.734V10.916h-6.514V6.013h18.647v4.903h-6.547v16.818H89.223z M114.227,27.734V6.013h4.779l9.497,11.946V6.013h5.46
		v21.721h-4.623l-9.619-12.01v12.01H114.227z M142.975,27.734V10.916h-6.516V6.013h18.647v4.903h-6.547v16.818H142.975z
		 M157.78,6.013h5.585V18.92c0,2.762,1.674,4.097,3.941,4.097c2.326,0,3.938-1.334,3.938-4.097V6.013h5.588v12.629
		c0,3.01-0.901,5.368-2.701,7.044c-1.799,1.645-4.066,2.482-6.826,2.482c-2.762,0-5.027-0.838-6.827-2.482
		c-1.8-1.676-2.699-4.034-2.699-7.044V6.013z M180.715,27.734V6.013h10.21c2.389,0,4.281,0.621,5.678,1.893
		c1.427,1.241,2.141,2.855,2.141,4.81c0,2.823-1.582,5.089-4.221,6.113l6.58,8.905h-6.424l-6.143-8.287H186.3v8.287H180.715z
		 M186.3,14.887h4.313c1.521,0,2.482-0.776,2.482-2.047c0-1.272-0.961-2.109-2.482-2.109H186.3V14.887z M110.85,6.013h-3.152h-1.687
		h-2.546v4.957h1.847L110.85,6.013z M106.01,12.404v15.33h5.586V7.402L106.01,12.404z M54.491,23.005
		c-1.752-0.06-3.233-0.611-4.435-1.695c-1.241-1.147-1.861-2.637-1.861-4.437c0-1.768,0.62-3.259,1.83-4.406
		c1.211-1.148,2.73-1.737,4.562-1.737c2.016,0,3.847,0.527,5.554,1.583V6.82c-1.707-0.837-3.569-1.242-5.616-1.242
		c-3.477,0-6.359,1.056-8.658,3.166c-2.264,2.108-3.413,4.81-3.413,8.129c0,3.321,1.148,6.02,3.445,8.129
		c1.108,1.018,2.354,1.785,3.736,2.312L54.491,23.005z M57.055,22.8c-1.272,1.122-3.812,3.36-5.697,5.021
		c1.005,0.224,2.066,0.348,3.197,0.348c2.203,0,4.189-0.465,5.958-1.365V21.28C59.522,22.028,58.37,22.534,57.055,22.8z"/>
</g>
</svg>